<mxfile host="app.diagrams.net" modified="2024-06-18T04:59:56.540Z" agent="Mozilla/5.0 (X11; Linux x86_64) AppleWebKit/537.36 (KHTML, like Gecko) Chrome/123.0.0.0 Safari/537.36" etag="mTFpTIFbkaRrKLa_30kt" version="24.4.9" type="device">
  <diagram name="Страница — 1" id="l3O1kZRNcYQEnrVtj-X_">
    <mxGraphModel dx="1122" dy="696" grid="1" gridSize="10" guides="1" tooltips="1" connect="1" arrows="1" fold="1" page="1" pageScale="1" pageWidth="827" pageHeight="1169" math="0" shadow="0">
      <root>
        <mxCell id="0" />
        <mxCell id="1" parent="0" />
        <mxCell id="3TUxsonk7bwIEWhqeNk2-1" value="" style="rounded=0;whiteSpace=wrap;html=1;" vertex="1" parent="1">
          <mxGeometry x="520" y="40" width="120" height="40" as="geometry" />
        </mxCell>
        <mxCell id="3TUxsonk7bwIEWhqeNk2-2" value="Animals" style="text;html=1;align=center;verticalAlign=middle;whiteSpace=wrap;rounded=0;" vertex="1" parent="1">
          <mxGeometry x="550" y="45" width="60" height="30" as="geometry" />
        </mxCell>
        <mxCell id="3TUxsonk7bwIEWhqeNk2-3" value="" style="rounded=0;whiteSpace=wrap;html=1;" vertex="1" parent="1">
          <mxGeometry x="200" y="120" width="120" height="40" as="geometry" />
        </mxCell>
        <mxCell id="3TUxsonk7bwIEWhqeNk2-4" value="PackAnimals" style="text;html=1;align=center;verticalAlign=middle;whiteSpace=wrap;rounded=0;" vertex="1" parent="1">
          <mxGeometry x="230" y="125" width="60" height="30" as="geometry" />
        </mxCell>
        <mxCell id="3TUxsonk7bwIEWhqeNk2-5" value="" style="rounded=0;whiteSpace=wrap;html=1;" vertex="1" parent="1">
          <mxGeometry x="840" y="120" width="120" height="40" as="geometry" />
        </mxCell>
        <mxCell id="3TUxsonk7bwIEWhqeNk2-6" value="Pets" style="text;html=1;align=center;verticalAlign=middle;whiteSpace=wrap;rounded=0;" vertex="1" parent="1">
          <mxGeometry x="870" y="125" width="60" height="30" as="geometry" />
        </mxCell>
        <mxCell id="3TUxsonk7bwIEWhqeNk2-7" value="" style="rounded=0;whiteSpace=wrap;html=1;" vertex="1" parent="1">
          <mxGeometry x="40" y="200" width="120" height="40" as="geometry" />
        </mxCell>
        <mxCell id="3TUxsonk7bwIEWhqeNk2-8" value="Horses" style="text;html=1;align=center;verticalAlign=middle;whiteSpace=wrap;rounded=0;" vertex="1" parent="1">
          <mxGeometry x="70" y="205" width="60" height="30" as="geometry" />
        </mxCell>
        <mxCell id="3TUxsonk7bwIEWhqeNk2-9" value="" style="rounded=0;whiteSpace=wrap;html=1;" vertex="1" parent="1">
          <mxGeometry x="200" y="200" width="120" height="40" as="geometry" />
        </mxCell>
        <mxCell id="3TUxsonk7bwIEWhqeNk2-10" value="Camels" style="text;html=1;align=center;verticalAlign=middle;whiteSpace=wrap;rounded=0;" vertex="1" parent="1">
          <mxGeometry x="230" y="205" width="60" height="30" as="geometry" />
        </mxCell>
        <mxCell id="3TUxsonk7bwIEWhqeNk2-11" value="" style="rounded=0;whiteSpace=wrap;html=1;" vertex="1" parent="1">
          <mxGeometry x="360" y="200" width="120" height="40" as="geometry" />
        </mxCell>
        <mxCell id="3TUxsonk7bwIEWhqeNk2-12" value="Donkeys" style="text;html=1;align=center;verticalAlign=middle;whiteSpace=wrap;rounded=0;" vertex="1" parent="1">
          <mxGeometry x="390" y="205" width="60" height="30" as="geometry" />
        </mxCell>
        <mxCell id="3TUxsonk7bwIEWhqeNk2-19" value="" style="rounded=0;whiteSpace=wrap;html=1;" vertex="1" parent="1">
          <mxGeometry x="680" y="200" width="120" height="40" as="geometry" />
        </mxCell>
        <mxCell id="3TUxsonk7bwIEWhqeNk2-20" value="Hamsters" style="text;html=1;align=center;verticalAlign=middle;whiteSpace=wrap;rounded=0;" vertex="1" parent="1">
          <mxGeometry x="710" y="205" width="60" height="30" as="geometry" />
        </mxCell>
        <mxCell id="3TUxsonk7bwIEWhqeNk2-21" value="" style="rounded=0;whiteSpace=wrap;html=1;" vertex="1" parent="1">
          <mxGeometry x="840" y="195" width="120" height="40" as="geometry" />
        </mxCell>
        <mxCell id="3TUxsonk7bwIEWhqeNk2-22" value="Dogs" style="text;html=1;align=center;verticalAlign=middle;whiteSpace=wrap;rounded=0;" vertex="1" parent="1">
          <mxGeometry x="870" y="200" width="60" height="30" as="geometry" />
        </mxCell>
        <mxCell id="3TUxsonk7bwIEWhqeNk2-23" value="" style="rounded=0;whiteSpace=wrap;html=1;" vertex="1" parent="1">
          <mxGeometry x="1000" y="200" width="120" height="40" as="geometry" />
        </mxCell>
        <mxCell id="3TUxsonk7bwIEWhqeNk2-24" value="Cats" style="text;html=1;align=center;verticalAlign=middle;whiteSpace=wrap;rounded=0;" vertex="1" parent="1">
          <mxGeometry x="1030" y="205" width="60" height="30" as="geometry" />
        </mxCell>
        <mxCell id="3TUxsonk7bwIEWhqeNk2-25" value="" style="endArrow=classic;html=1;rounded=0;exitX=0.5;exitY=1;exitDx=0;exitDy=0;entryX=0.5;entryY=0;entryDx=0;entryDy=0;" edge="1" parent="1" source="3TUxsonk7bwIEWhqeNk2-1" target="3TUxsonk7bwIEWhqeNk2-3">
          <mxGeometry width="50" height="50" relative="1" as="geometry">
            <mxPoint x="400" y="70" as="sourcePoint" />
            <mxPoint x="270" y="110" as="targetPoint" />
          </mxGeometry>
        </mxCell>
        <mxCell id="3TUxsonk7bwIEWhqeNk2-28" value="" style="endArrow=classic;html=1;rounded=0;entryX=0.5;entryY=0;entryDx=0;entryDy=0;" edge="1" parent="1" target="3TUxsonk7bwIEWhqeNk2-5">
          <mxGeometry width="50" height="50" relative="1" as="geometry">
            <mxPoint x="580" y="80" as="sourcePoint" />
            <mxPoint x="840" y="40" as="targetPoint" />
          </mxGeometry>
        </mxCell>
        <mxCell id="3TUxsonk7bwIEWhqeNk2-29" value="" style="endArrow=classic;html=1;rounded=0;exitX=0.5;exitY=1;exitDx=0;exitDy=0;entryX=0.5;entryY=0;entryDx=0;entryDy=0;" edge="1" parent="1" source="3TUxsonk7bwIEWhqeNk2-3" target="3TUxsonk7bwIEWhqeNk2-7">
          <mxGeometry width="50" height="50" relative="1" as="geometry">
            <mxPoint x="180" y="410" as="sourcePoint" />
            <mxPoint x="230" y="360" as="targetPoint" />
          </mxGeometry>
        </mxCell>
        <mxCell id="3TUxsonk7bwIEWhqeNk2-31" value="" style="endArrow=classic;html=1;rounded=0;entryX=0.5;entryY=0;entryDx=0;entryDy=0;" edge="1" parent="1" target="3TUxsonk7bwIEWhqeNk2-9">
          <mxGeometry width="50" height="50" relative="1" as="geometry">
            <mxPoint x="260" y="160" as="sourcePoint" />
            <mxPoint x="430" y="130" as="targetPoint" />
          </mxGeometry>
        </mxCell>
        <mxCell id="3TUxsonk7bwIEWhqeNk2-32" value="" style="endArrow=classic;html=1;rounded=0;entryX=0.5;entryY=0;entryDx=0;entryDy=0;" edge="1" parent="1" target="3TUxsonk7bwIEWhqeNk2-11">
          <mxGeometry width="50" height="50" relative="1" as="geometry">
            <mxPoint x="260" y="160" as="sourcePoint" />
            <mxPoint x="440" y="140" as="targetPoint" />
          </mxGeometry>
        </mxCell>
        <mxCell id="3TUxsonk7bwIEWhqeNk2-33" value="" style="endArrow=classic;html=1;rounded=0;exitX=0.5;exitY=1;exitDx=0;exitDy=0;entryX=0.5;entryY=0;entryDx=0;entryDy=0;" edge="1" parent="1" source="3TUxsonk7bwIEWhqeNk2-5" target="3TUxsonk7bwIEWhqeNk2-19">
          <mxGeometry width="50" height="50" relative="1" as="geometry">
            <mxPoint x="710" y="170" as="sourcePoint" />
            <mxPoint x="760" y="120" as="targetPoint" />
          </mxGeometry>
        </mxCell>
        <mxCell id="3TUxsonk7bwIEWhqeNk2-39" value="" style="endArrow=classic;html=1;rounded=0;entryX=0.5;entryY=0;entryDx=0;entryDy=0;" edge="1" parent="1" target="3TUxsonk7bwIEWhqeNk2-22">
          <mxGeometry width="50" height="50" relative="1" as="geometry">
            <mxPoint x="900" y="160" as="sourcePoint" />
            <mxPoint x="940" y="280" as="targetPoint" />
          </mxGeometry>
        </mxCell>
        <mxCell id="3TUxsonk7bwIEWhqeNk2-40" value="" style="endArrow=classic;html=1;rounded=0;entryX=0.5;entryY=0;entryDx=0;entryDy=0;" edge="1" parent="1" target="3TUxsonk7bwIEWhqeNk2-23">
          <mxGeometry width="50" height="50" relative="1" as="geometry">
            <mxPoint x="900" y="160" as="sourcePoint" />
            <mxPoint x="1060" y="120" as="targetPoint" />
          </mxGeometry>
        </mxCell>
      </root>
    </mxGraphModel>
  </diagram>
</mxfile>
